<svg width="25" height="25" fill="none" xmlns="http://www.w3.org/2000/svg"><g clip-path="url(#a)" fill="#1B74E4"><path d="M17.188 9.375a4.688 4.688 0 1 1-9.376 0 4.688 4.688 0 0 1 9.375 0Z"/><path fill-rule="evenodd" clip-rule="evenodd" d="M0 12.5a12.5 12.5 0 1 1 25 0 12.5 12.5 0 0 1-25 0ZM12.5 1.562a10.938 10.938 0 0 0-8.544 17.766c1.11-1.787 3.552-3.703 8.544-3.703 4.992 0 7.433 1.914 8.544 3.703A10.938 10.938 0 0 0 12.5 1.563Z"/></g><defs><clipPath id="a"><path fill="#fff" d="M0 0h25v25H0z"/></clipPath></defs></svg>