<svg width="92" height="19" fill="none" xmlns="http://www.w3.org/2000/svg"><path d="M.745 9.125c0-3.1.834-5.375 2.502-6.823C4.915.853 7.365.129 10.596.129c3.239 0 5.68.688 7.324 2.063 1.652 1.375 2.478 3.601 2.478 6.677 0 1.628-.317 2.954-.952 3.98-.448.74-.928 1.4-1.44 1.977h1.94c.334 0 .61.114.83.342.22.22.33.488.33.806v1a1.126 1.126 0 0 1-1.16 1.148h-9.375c-3.214 0-5.656-.724-7.324-2.173C1.58 14.501.745 12.226.745 9.125Zm9.826 5.701c3.483 0 5.225-1.986 5.225-5.957 0-1.847-.411-3.214-1.233-4.101-.822-.896-2.148-1.343-3.98-1.343-1.822 0-3.153.484-3.991 1.452-.83.969-1.245 2.385-1.245 4.248 0 1.864.415 3.28 1.245 4.248.838.969 2.165 1.453 3.98 1.453Zm12.903 2.295c-1.074-.749-1.611-1.806-1.611-3.174 0-1.367.537-2.417 1.611-3.15 1.082-.732 2.474-1.098 4.175-1.098h4.04c0-.952-.199-1.615-.598-1.99-.399-.374-1.098-.561-2.1-.561-.992 0-1.692.248-2.099.745-.399.488-.891.732-1.477.732h-1.819a.769.769 0 0 1-.55-.208.753.753 0 0 1-.207-.537c0-2.335 2.218-3.503 6.653-3.503 1.937 0 3.491.435 4.663 1.306 1.172.863 1.758 2.201 1.758 4.016v7.556c0 .22-.07.4-.207.538a.727.727 0 0 1-.538.207h-2.355a.727.727 0 0 1-.538-.207.753.753 0 0 1-.207-.538v-.378c-1.286.92-2.771 1.375-4.456 1.367-1.676 0-3.055-.374-4.138-1.123Zm4.468-4.65c-.57 0-1.021.138-1.355.414a1.344 1.344 0 0 0-.488 1.075c0 .439.17.801.512 1.086.342.285.826.427 1.453.427 1.253 0 2.462-.366 3.625-1.099V12.47h-3.747Zm10.23-4.151c0-2.629 2.12-3.943 6.36-3.943 4.459 0 6.689 1.168 6.689 3.503 0 .212-.07.391-.208.537a.727.727 0 0 1-.537.208h-1.819c-.586 0-1.078-.244-1.477-.732-.399-.497-1.184-.745-2.356-.745-1.611 0-2.417.39-2.417 1.172 0 .366.314.671.94.915.635.244 1.404.46 2.307.647.912.18 1.82.411 2.722.696.904.285 1.669.74 2.295 1.367.635.619.953 1.404.953 2.356 0 2.629-2.238 3.943-6.714 3.943-4.476 0-6.714-1.164-6.714-3.491a.727.727 0 0 1 .757-.757h1.819c.585 0 1.078.248 1.477.745.398.488 1.184.732 2.355.732 1.864 0 2.796-.39 2.796-1.172 0-.366-.317-.671-.952-.915-.627-.244-1.396-.46-2.307-.647a32.644 32.644 0 0 1-2.722-.708 5.652 5.652 0 0 1-2.295-1.367c-.635-.627-.953-1.408-.953-2.344Zm16.87 8.166c-1.27-1.171-1.905-2.897-1.905-5.176 0-2.286.635-4.012 1.904-5.175 1.27-1.172 3.093-1.758 5.47-1.758 2.384 0 4.21.586 5.48 1.758 1.27 1.163 1.904 2.889 1.904 5.175 0 2.28-.634 4.005-1.904 5.176-1.27 1.172-3.096 1.758-5.48 1.758-2.377 0-4.2-.586-5.47-1.758Zm3.088-8.35c-.505.66-.757 1.714-.757 3.162 0 1.449.252 2.507.757 3.174.504.668 1.298 1.001 2.38 1.001 1.09 0 1.888-.334 2.393-1 .513-.668.769-1.726.769-3.175 0-1.448-.256-2.502-.77-3.161-.504-.66-1.301-.99-2.392-.99-1.082 0-1.876.33-2.38.99Zm21.826-4.784-1.684-.208c-1.62 0-2.674.22-3.162.66-.488.43-.733 1.33-.733 2.697v.195h4.42c.22 0 .398.074.537.22.146.138.22.317.22.537v1.453c0 .22-.074.399-.22.537a.727.727 0 0 1-.538.207h-4.419v7.605c0 .22-.073.4-.22.538a.711.711 0 0 1-.524.207h-2.735a.727.727 0 0 1-.537-.207.727.727 0 0 1-.207-.538V6.501c0-2.27.517-3.878 1.55-4.822C72.738.727 74.552.251 77.148.251c1.335 0 2.267.049 2.796.146.529.098.862.22 1 .367a.668.668 0 0 1 .208.488v1.343c0 .22-.073.403-.22.549a.711.711 0 0 1-.524.208h-.452Zm8.704 12 1.672-.147h.452c.22 0 .398.069.537.207.146.138.22.317.22.537v1.306a.677.677 0 0 1-.22.489.928.928 0 0 1-.537.256c-.83.163-1.913.244-3.247.244-3.5 0-5.25-1.83-5.25-5.493v-11.5a.727.727 0 0 1 .745-.756h2.735a.69.69 0 0 1 .525.22c.146.138.22.317.22.537v4.077h3.405c.212 0 .386.07.525.208.146.138.22.317.22.537v1.452c0 .22-.074.4-.22.537a.711.711 0 0 1-.525.208h-3.406v4.48c0 .83.196 1.473.586 1.929.39.447.912.671 1.563.671Z" fill="#fff"/></svg>