<svg width="25" height="25" fill="none" xmlns="http://www.w3.org/2000/svg"><path d="M0 3.906a.781.781 0 0 1 .781-.781h2.344a.781.781 0 0 1 .758.592l.633 2.533h18.14a.782.782 0 0 1 .758.97l-2.344 9.375a.781.781 0 0 1-.758.593H6.25a.781.781 0 0 1-.758-.593L2.516 4.688H.78A.781.781 0 0 1 0 3.905Zm4.906 3.906.782 3.125h2.125V7.813H4.905Zm4.469 0v3.125H12.5V7.813H9.375Zm4.688 0v3.125h3.124V7.813h-3.125Zm4.687 0v3.125h2.125l.781-3.124H18.75Zm1.734 4.688H18.75v3.125h.953l.781-3.125Zm-3.297 0h-3.125v3.125h3.126V12.5Zm-4.687 0H9.375v3.125H12.5V12.5Zm-4.688 0H6.079l.781 3.125h.954V12.5Zm0 7.813a1.563 1.563 0 1 0 0 3.125 1.563 1.563 0 0 0 0-3.125Zm-3.125 1.562a3.125 3.125 0 1 1 6.25 0 3.125 3.125 0 0 1-6.25 0Zm14.063-1.563a1.563 1.563 0 1 0 0 3.126 1.563 1.563 0 0 0 0-3.125Zm-3.125 1.563a3.125 3.125 0 1 1 6.25 0 3.125 3.125 0 0 1-6.25 0Z" fill="#fff"/></svg>