<svg width="100" height="100" fill="none" xmlns="http://www.w3.org/2000/svg"><g clip-path="url(#a)" fill="#1E1E1E"><path d="M68.75 37.5a18.75 18.75 0 1 1-37.5 0 18.75 18.75 0 0 1 37.5 0Z"/><path fill-rule="evenodd" clip-rule="evenodd" d="M0 50a50 50 0 1 1 100 0A50 50 0 0 1 0 50ZM50 6.25a43.75 43.75 0 0 0-34.175 71.063C20.263 70.162 30.031 62.5 50 62.5c19.969 0 29.731 7.656 34.175 14.813A43.75 43.75 0 0 0 50 6.25Z"/></g><defs><clipPath id="a"><path fill="#fff" d="M0 0h100v100H0z"/></clipPath></defs></svg>