<svg width="98" height="76" fill="none" xmlns="http://www.w3.org/2000/svg"><rect width="98" height="76" rx="10" fill="#F0F2F5"/><path d="M10.49 38.251c0-6.201 1.668-10.75 5.004-13.647 3.337-2.898 8.236-4.346 14.697-4.346 6.478 0 11.361 1.375 14.649 4.126 3.304 2.75 4.956 7.202 4.956 13.354 0 3.255-.635 5.909-1.904 7.96a26.915 26.915 0 0 1-2.881 3.954h3.882c.667 0 1.22.228 1.66.684.44.44.659.977.659 1.611v2.002c0 .635-.22 1.18-.66 1.636-.439.44-.992.66-1.66.66h-18.75c-6.428 0-11.311-1.45-14.648-4.347-3.336-2.897-5.005-7.446-5.005-13.647Zm19.653 11.401c6.966 0 10.449-3.971 10.449-11.914 0-3.694-.822-6.429-2.466-8.203-1.644-1.79-4.297-2.685-7.959-2.685-3.646 0-6.307.968-7.983 2.905-1.66 1.937-2.49 4.769-2.49 8.496 0 3.727.83 6.56 2.49 8.496 1.676 1.937 4.329 2.905 7.959 2.905Zm24.584 4.004V23.261c0-.635.228-1.172.684-1.612a2.274 2.274 0 0 1 1.636-.659h28.15a2.15 2.15 0 0 1 1.61.684c.456.456.684 1 .684 1.636v2.295c0 .634-.228 1.18-.683 1.635-.44.44-.977.66-1.612.66H63.932v8.593h17.31a2.15 2.15 0 0 1 1.61.684c.456.456.684.993.684 1.611v2.32c0 .634-.228 1.18-.683 1.635-.44.44-.977.66-1.612.66h-17.31v10.253c0 .668-.227 1.23-.683 1.685a2.19 2.19 0 0 1-1.611.659h-4.59c-.635 0-1.18-.22-1.636-.66-.456-.455-.684-1.016-.684-1.684Z" fill="#1B74E4"/></svg>