<svg width="104" height="25" fill="none" xmlns="http://www.w3.org/2000/svg"><path d="M.498 7.842v-.918a.9.9 0 0 1 .918-.928h11.406c.254 0 .469.088.645.264a.884.884 0 0 1 .273.664v1.094c0 .267-.058.524-.175.771-.111.247-.215.423-.313.527l-.43.44-7.685 7.48h7.783c.267 0 .485.088.654.264a.9.9 0 0 1 .264.664v.918a.9.9 0 0 1-.264.664.886.886 0 0 1-.654.254H1.582a.928.928 0 0 1-.654-.254.9.9 0 0 1-.264-.664v-1.084c0-.625.306-1.243.918-1.855L9.023 8.76H1.416a.928.928 0 0 1-.654-.254.9.9 0 0 1-.264-.664Zm15.723 11.455c-.86-.6-1.29-1.445-1.29-2.54 0-1.093.43-1.933 1.29-2.519.866-.586 1.979-.879 3.34-.879h3.232c0-.761-.16-1.292-.479-1.591-.319-.3-.878-.45-1.68-.45-.794 0-1.353.199-1.679.596-.319.39-.713.586-1.182.586h-1.455a.615.615 0 0 1-.44-.166.602.602 0 0 1-.165-.43c0-1.868 1.774-2.802 5.322-2.802 1.55 0 2.793.348 3.73 1.044.938.69 1.407 1.762 1.407 3.213v6.045a.582.582 0 0 1-.166.43.581.581 0 0 1-.43.166h-1.885a.581.581 0 0 1-.43-.166.602.602 0 0 1-.165-.43v-.302c-1.029.735-2.217 1.1-3.565 1.093-1.34 0-2.444-.3-3.31-.898Zm3.574-3.72c-.456 0-.817.11-1.084.331-.26.222-.39.508-.39.86 0 .351.136.64.41.869.273.228.66.341 1.162.341 1.002 0 1.969-.293 2.9-.878v-1.524h-2.998ZM32.92 19.18c-1.478 0-2.673-.446-3.584-1.338-.905-.892-1.357-2.13-1.357-3.711 0-1.582.517-2.816 1.552-3.701 1.035-.886 2.52-1.328 4.453-1.328.944 0 1.924.107 2.94.322 1.016.208 1.78.465 2.295.771v9.043c0 1.452-.479 2.523-1.436 3.213-.957.697-2.301 1.045-4.033 1.045-1.725 0-3.057-.218-3.994-.654-.931-.43-1.397-1.143-1.397-2.139a.62.62 0 0 1 .166-.44.615.615 0 0 1 .44-.165h1.455c.469 0 .843.172 1.123.517.358.443.993.664 1.904.664.918 0 1.546-.15 1.885-.449.339-.3.508-.83.508-1.592v-.459c-1.042.267-2.015.4-2.92.4Zm.86-7.715c-1.544-.007-2.315.885-2.315 2.676 0 1.784.752 2.675 2.256 2.675.625 0 1.331-.097 2.119-.293V11.68c-.56-.15-1.247-.222-2.06-.215Zm7.85 4.033V9.902a.581.581 0 0 1 .597-.605h2.187c.17 0 .31.058.42.176.117.11.176.254.176.43v5.595c0 1.563.618 2.344 1.855 2.344.814 0 1.69-.469 2.627-1.406V9.902a.581.581 0 0 1 .596-.605h2.178c.175 0 .319.058.43.176.117.11.175.254.175.43v9.501a.584.584 0 0 1-.605.596h-2.178a.602.602 0 0 1-.43-.166.602.602 0 0 1-.166-.43v-.625c-1.12.944-2.314 1.416-3.584 1.416-1.263 0-2.291-.384-3.086-1.152-.794-.775-1.191-1.956-1.191-3.545Zm13.653-8.242v-.332c0-.345.098-.619.293-.82.202-.202.479-.303.83-.303h1.211c.345 0 .619.1.82.303.202.195.303.468.303.82v.332c0 .345-.1.618-.303.82-.195.202-.468.303-.82.303h-1.21c-.346 0-.62-.101-.821-.303-.202-.202-.303-.475-.303-.82Zm.04 12.148v-9.267c0-.176.055-.32.165-.43a.602.602 0 0 1 .43-.166h2.188c.175 0 .319.059.43.176.11.11.165.25.165.42v9.267a.564.564 0 0 1-.176.43.57.57 0 0 1-.42.166h-2.187a.581.581 0 0 1-.43-.166.581.581 0 0 1-.166-.43Zm5.214-7.148c0-2.103 1.696-3.154 5.088-3.154 3.568 0 5.352.934 5.352 2.802 0 .17-.056.313-.166.43a.581.581 0 0 1-.43.166h-1.455c-.469 0-.863-.195-1.182-.586-.319-.397-.947-.596-1.885-.596-1.289 0-1.933.313-1.933.938 0 .293.25.537.752.732a11.98 11.98 0 0 0 1.845.518c.73.143 1.456.329 2.178.556a4.436 4.436 0 0 1 1.836 1.094c.508.495.762 1.123.762 1.885 0 2.103-1.79 3.154-5.371 3.154-3.581 0-5.371-.93-5.371-2.793a.581.581 0 0 1 .605-.605h1.455c.469 0 .863.198 1.182.596.319.39.947.585 1.885.585 1.49 0 2.236-.312 2.236-.937 0-.293-.254-.537-.762-.732a11.57 11.57 0 0 0-1.846-.518 26.072 26.072 0 0 1-2.177-.566 4.52 4.52 0 0 1-1.836-1.094c-.508-.501-.762-1.126-.762-1.875Zm13.496 6.533c-1.015-.937-1.523-2.318-1.523-4.14 0-1.83.508-3.21 1.523-4.141 1.016-.938 2.474-1.406 4.375-1.406 1.908 0 3.37.468 4.385 1.406 1.016.93 1.523 2.311 1.523 4.14 0 1.823-.507 3.204-1.523 4.141-1.016.938-2.477 1.406-4.385 1.406-1.9 0-3.36-.468-4.375-1.406Zm2.47-6.68c-.403.528-.605 1.37-.605 2.53 0 1.159.202 2.005.606 2.539.404.534 1.038.8 1.904.8.873 0 1.51-.266 1.914-.8.41-.534.615-1.38.615-2.54 0-1.158-.205-2.001-.615-2.529-.403-.527-1.041-.79-1.914-.79-.866 0-1.5.263-1.904.79Zm17.462-3.828-1.348-.166c-1.295 0-2.139.176-2.53.528-.39.345-.585 1.064-.585 2.158v.156h3.535c.176 0 .32.059.43.176.117.11.176.254.176.43v1.162a.564.564 0 0 1-.176.43.581.581 0 0 1-.43.165h-3.535v6.084a.564.564 0 0 1-.176.43.57.57 0 0 1-.42.166H86.72a.581.581 0 0 1-.43-.166.581.581 0 0 1-.166-.43v-8.603c0-1.817.413-3.102 1.24-3.858.827-.761 2.279-1.142 4.356-1.142 1.068 0 1.813.039 2.236.117.423.078.69.176.8.293.112.11.167.24.167.39v1.075a.596.596 0 0 1-.176.44.57.57 0 0 1-.42.165h-.361Zm6.963 9.6 1.338-.117h.361a.582.582 0 0 1 .605.595v1.045a.541.541 0 0 1-.175.39.743.743 0 0 1-.43.206c-.664.13-1.53.195-2.598.195-2.8 0-4.199-1.465-4.199-4.394V6.6a.581.581 0 0 1 .596-.605h2.187c.17 0 .31.059.42.176.117.11.176.254.176.43v3.261h2.725a.57.57 0 0 1 .42.166.565.565 0 0 1 .175.43v1.162a.564.564 0 0 1-.175.43.57.57 0 0 1-.42.166h-2.725V15.8c0 .664.156 1.178.469 1.543.312.358.729.537 1.25.537Z" fill="#fff"/></svg>