<svg width="100" height="55" fill="none" xmlns="http://www.w3.org/2000/svg"><path d="M.004 50.002h4v-14.76L9.56 47.86c.686 1.573 1.623 2.13 3.463 2.13s2.74-.557 3.425-2.13l5.556-12.296v14.438h4V34.88c0-1.452-.577-2.156-1.769-2.519-2.848-.896-4.76-.123-5.625 1.817l-5.697 12.833-5.52-12.833c-.828-1.938-2.774-2.713-5.624-1.817C.577 32.725 0 33.427 0 34.88V50h.004v.003Zm27.998-12h4v8.448c-.031.417.133 1.523 2.063 1.552.983.017 5.877 0 5.937 0v-10h4c.017 0 0 12.433 0 12.485.02 3.067-3.808 3.463-5.569 3.515H28.004v-2c.02 0 9.973.002 10.002 0 2.267-.24 1.998-1.488 1.998-1.867v-.133h-6.275c-3.48-.031-5.698-1.565-5.723-3.313-.004-.162.075-8.612-.004-8.687Z" fill="#00796B"/><path d="M46.002 50.002h10.014c1.313 0 2.588-.275 3.6-.75 1.688-.775 2.384-1.823 2.384-3.2v-2.85c0-3.075-3.813-3.2-6-3.2h-4c-1.573 0-1.813-.95-2-2v-2c.187-.8.537-1.875 1.923-2h10.075v-2h-9.513c-1.573 0-6.487.188-6.487 4v2.473c0 1.75 1.537 3.175 4.875 3.525.375.025.75.05 1.123.05 0 0 3.887-.075 4-.05 2.25 0 2 1.75 2 2v2c0 .275-.063 2-2.023 2h-9.977v2.002h.006ZM84 45.916c0 2.415 1.365 3.77 4.983 4.04.338.023.677.044 1.017.044h10v-2h-9.24c-2.064 0-2.76-.867-2.76-2.106V32h-4v13.916Zm-20.033.086v-10c0-2.125 1.041-3.592 3.992-4h9.674c2.95.408 4.334 1.873 4.334 4v9.962c0 1.723-.448 2.648-1.909 3.248l3.1 2.788h-4.5l-2.229-2h-2.618l-4.45.025a7.77 7.77 0 0 1-2.07-.294c-2.237-.61-3.324-1.785-3.324-3.73Zm4 0c.204.973.985 2 2.375 2h3.883l-2.225-2h4.531l1.082 1.004S78 46.69 78 46.002s-.033-10-.033-10c-.204-.904-1.121-2-2.475-2h-5.148c-1.56 0-2.375 1.142-2.375 2.204l-.002 9.796Z" fill="#F57F17"/><path d="M96.248 29.894c-2.148-.059-3.788.141-5.19.73-.398.17-1.033.174-1.1.674.219.229.252.573.427.854.334.542.9 1.269 1.404 1.648.552.417 1.121.862 1.71 1.223 1.05.64 2.224 1.006 3.236 1.648.596.377 1.188.856 1.771 1.281.288.212.48.54.854.673v-.06c-.196-.25-.248-.594-.427-.857l-.794-.794c-.775-1.029-1.762-1.935-2.808-2.685-.835-.6-2.704-1.41-3.054-2.381l-.063-.063c.592-.066 1.286-.28 1.832-.427.918-.246 1.737-.181 2.685-.427l1.281-.367v-.243c-.479-.492-.823-1.142-1.343-1.588-1.37-1.164-2.86-2.327-4.396-3.298-.852-.537-1.906-.887-2.809-1.343-.304-.155-.837-.234-1.037-.488-.475-.604-.731-1.373-1.098-2.075a77.038 77.038 0 0 1-2.198-4.64c-.465-1.058-.767-2.104-1.344-3.054-2.773-4.558-5.758-7.31-10.379-10.014-.983-.575-2.169-.802-3.42-1.1-.674-.04-1.344-.082-2.017-.123-.41-.173-.836-.673-1.223-.917-1.532-.969-5.46-3.073-6.594-.306-.717 1.746 1.07 3.45 1.71 4.335.448.621 1.023 1.317 1.344 2.017.21.458.248.919.427 1.404.444 1.196 1.146 2.559 1.721 3.665.29.56.61 1.148.977 1.648.225.306.61.441.673.916-.377.527-.398 1.346-.61 2.017-.954 3.01-.594 6.75.793 8.975.425.683 1.43 2.15 2.809 1.587 1.206-.491.937-2.014 1.281-3.358.077-.304.03-.527.183-.731v.062c.367.732.732 1.467 1.1 2.198.815 1.31 2.259 2.68 3.48 3.605.633.479 1.133 1.308 1.954 1.587v-.063h-.063c-.158-.247-.408-.35-.61-.55a13.892 13.892 0 0 1-1.404-1.587c-1.113-1.51-2.096-3.165-2.992-4.885-.427-.823-.8-1.727-1.16-2.565-.14-.323-.138-.81-.428-.977-.395.612-.975 1.108-1.28 1.831-.488 1.156-.553 2.569-.732 4.03-.108.037-.06.012-.123.06-.85-.206-1.15-1.08-1.467-1.831-.8-1.9-.948-4.959-.243-7.144.18-.567 1.004-2.348.672-2.871-.158-.523-.683-.825-.974-1.223a9.544 9.544 0 0 1-.978-1.71c-.654-1.482-1.275-3.205-1.964-4.703-.33-.716-.886-1.44-1.344-2.075-.506-.704-1.075-1.222-1.467-2.075-.14-.302-.329-.787-.123-1.1.067-.21.159-.297.367-.366.354-.275 1.34.09 1.71.244.98.406 1.796.793 2.626 1.343.397.265.8.775 1.28.917h.55c.861.198 1.824.062 2.626.306 1.42.431 2.692 1.102 3.846 1.831 3.52 2.223 6.398 5.386 8.366 9.16.317.61.454 1.188.732 1.832.562 1.3 1.273 2.638 1.83 3.909.56 1.268 1.105 2.547 1.895 3.604.416.554 2.02.852 2.747 1.16.51.217 1.348.44 1.832.731.925.559 1.82 1.223 2.685 1.832.442.306 1.773.975 1.84 1.527Z" fill="#00796B"/><path d="M68.954 6.63a4.283 4.283 0 0 0-1.1.124v.062h.063c.214.438.59.723.854 1.1l.61 1.282.06-.06c.378-.267.553-.692.55-1.345-.152-.16-.174-.36-.306-.55-.175-.256-.512-.4-.731-.612Z" fill="#00796B"/></svg>