<svg width="92" height="69" fill="none" xmlns="http://www.w3.org/2000/svg"><path d="M78.89 39.493c-3.204.016-5.98.785-8.304 1.933-.85-1.698-1.713-3.192-1.857-4.302-.168-1.296-.364-2.07-.16-3.615.204-1.543 1.098-3.73 1.085-3.895-.012-.165-.2-.95-2.047-.965-1.848-.012-3.43.356-3.615.844a18.251 18.251 0 0 0-.763 2.731c-.322 1.675-3.69 7.652-5.6 10.777-.625-1.22-1.156-2.296-1.266-3.146-.169-1.296-.365-2.07-.16-3.614.203-1.544 1.097-3.732 1.085-3.896-.013-.165-.2-.95-2.048-.965-1.848-.012-3.43.357-3.615.844-.185.488-.385 1.627-.762 2.731-.38 1.102-4.852 11.071-6.025 13.657a78.709 78.709 0 0 1-1.484 3.095l-.002-.004-.06.13c-.315.614-.5.953-.5.953l.006.013c-.25.452-.517.87-.648.87-.091 0-.277-1.201.04-2.851.666-3.459 2.264-8.85 2.25-9.038-.008-.096.298-1.035-1.044-1.527-1.304-.477-1.769.319-1.887.321-.115.002-.2.281-.2.281s1.452-6.064-2.771-6.064c-2.642 0-6.3 2.89-8.102 5.508-1.138.62-3.573 1.95-6.154 3.369l-2.965 1.631c-.065-.073-.131-.144-.198-.217-5.123-5.464-14.59-9.329-14.19-16.677.146-2.67 1.075-9.704 18.194-18.233 14.023-6.988 25.25-5.065 27.19-.804 2.77 6.09-6 17.404-20.563 19.037-5.548.623-8.47-1.529-9.198-2.329-.764-.844-.879-.881-1.164-.723-.465.258-.171 1.002 0 1.446.435 1.131 2.218 3.137 5.26 4.137 2.677.88 9.192 1.36 17.069-1.687 8.825-3.412 15.715-12.908 13.69-20.844C55.348.335 41.965-2.32 29.297 2.18 21.75 4.86 13.59 9.064 7.721 14.551.744 21.076-.369 26.757.09 29.131c1.629 8.433 13.252 13.924 17.906 17.993l-.642.354c-2.333 1.154-11.193 5.792-13.41 10.69-2.515 5.556.4 9.544 2.33 10.081 5.976 1.663 12.11-1.33 15.408-6.246 3.295-4.914 2.893-11.316 1.38-14.237-.018-.036-.039-.071-.058-.109l1.825-1.077a118.752 118.752 0 0 1 3.365-1.898c-.567 1.55-.981 3.41-1.196 6.096-.254 3.154 1.04 7.231 2.731 8.836.746.706 1.642.723 2.209.723 1.969 0 2.866-1.638 3.856-3.576 1.213-2.375 2.29-5.141 2.29-5.141s-1.35 7.47 2.329 7.47c1.341 0 2.69-1.739 3.291-2.624l.002.014.105-.173c.14-.212.218-.348.218-.348l.007-.04c.54-.935 1.735-3.068 3.527-6.587 2.316-4.546 4.537-10.241 4.537-10.241s.206 1.391.884 3.695c.398 1.355 1.243 2.853 1.912 4.29a50.336 50.336 0 0 1-.867 1.173s.002.008.009.023c-.43.57-.91 1.185-1.415 1.785-1.829 2.177-4.006 4.665-4.298 5.382-.344.845-.262 1.466.402 1.968.486.365 1.348.423 2.25.363 1.644-.11 2.798-.519 3.37-.767a11.282 11.282 0 0 0 2.895-1.523c1.794-1.319 2.875-3.204 2.77-5.704-.058-1.377-.495-2.742-1.051-4.03l.49-.707c2.826-4.134 5.02-8.675 5.02-8.675s.206 1.391.883 3.695c.342 1.165 1.02 2.438 1.627 3.684-2.658 2.16-4.306 4.67-4.879 6.316-1.058 3.046-.229 4.425 1.325 4.74.705.142 1.7-.181 2.448-.498a11.32 11.32 0 0 0 3.096-1.592c1.794-1.318 3.519-3.164 3.415-5.662-.048-1.138-.357-2.267-.775-3.35 2.254-.94 5.17-1.46 8.887-1.027 7.973.931 9.536 5.908 9.238 7.991-.3 2.084-1.971 3.23-2.532 3.575-.558.346-.729.467-.683.723.069.373.327.36.804.28.656-.11 4.186-1.694 4.338-5.54.19-4.887-4.488-10.25-12.773-10.206ZM17.438 60.209c-2.642 2.882-6.33 3.97-7.913 3.052-1.708-.99-1.031-5.23 2.209-8.29 1.975-1.862 4.525-3.578 6.216-4.634l1.638-.984.179-.1-.002-.004c.133-.08.269-.16.408-.246 1.181 4.352.038 8.184-2.735 11.206Zm19.24-13.077c-.92 2.242-2.844 7.98-4.017 7.671-1.007-.264-1.62-4.625-.2-8.916.712-2.16 2.237-4.742 3.133-5.744 1.442-1.613 3.03-2.14 3.415-1.486.49.834-1.755 7.07-2.332 8.475Zm15.893 7.584c-.39.204-.748.33-.912.233-.123-.073.16-.342.16-.342s1.987-2.14 2.77-3.112c.457-.567.984-1.24 1.56-1.99.003.075.005.15.005.223-.004 2.563-2.479 4.292-3.583 4.988Zm12.244-2.792c-.292-.206-.242-.875.714-2.96.375-.82 1.234-2.196 2.721-3.513.173.542.277 1.06.275 1.544-.019 3.225-2.319 4.429-3.71 4.929Z" fill="#F06292"/></svg>