<svg width="71" height="80" fill="none" xmlns="http://www.w3.org/2000/svg"><path d="M70.833 0H0l6.25 70.833 29.167 8.334 29.166-8.334L70.833 0Z" fill="#0277BD"/><path d="M35.416 6.25v66.458l23.334-6.666L63.958 6.25H35.417Z" fill="#039BE5"/><path d="M54.375 16.666H35.416V25h10.209L45 33.333h-9.584v8.334h9.167l-.625 9.374-8.541 2.917v8.75l16.458-5.416 1.458-23.959 1.042-16.666Z" fill="#fff"/><path d="M35.417 16.666V25H16.875l-.625-8.334h19.167Zm-9.584 16.667.417 8.334h9.167v-8.334h-9.584Zm.834 12.5h-8.334l.625 11.459 16.459 5.416v-8.75l-8.542-2.916-.208-5.209Z" fill="#EEE"/></svg>