<svg width="44" height="94" fill="none" xmlns="http://www.w3.org/2000/svg"><path d="M41.107 0a.438.438 0 0 0-.293.104L29.205 13.892l-2.368 8.142c-1.61-.053-3.271-.073-4.974-.073C9.797 21.961 0 23.239 0 24.824c0 3.78 43.72 3.78 43.72 0 0-1.172-5.234-2.162-12.781-2.631l1.873-6.702L43.672 2.43l.018-.018c.244-.254-.232-1.013-1.007-1.679-.581-.502-1.193-.747-1.575-.732ZM25.946 25.24l-.043.128c-.018.015-.018.036-.018.055 0 .234.946.427 2.1.427 1.153 0 2.105-.193 2.105-.427l.037-.147c.303.11.47.235.47.379 0 .378-1.171.687-2.63.671-1.42 0-2.595-.287-2.595-.665 0-.163.233-.312.574-.421Zm17.53 1.074c-5.785 3.084-37.383 3.105-43.19.043l2.57 22.6c1.116-3.602 3.938-8.467 7.569-9.942 1.19-.487 2.4-.485 3.534.165.984.54 1.816 1.674 1.91 2.124.228 1.172-.376 1.636-.848 1.636-.569 0-1.004-.825-1.288-1.312-.775-1.316-1.948-1.373-3.198-.507-1.307.9-2.441 2.414-3.235 3.73-.966 1.584-1.78 3.33-2.27 5.077-.285 1.01-.545 2.627-.11 3.583.19.397.47.647.927.647.947 0 2.322-1.188 2.985-1.819.85-.81 1.946-2.071 2.362-2.88l.989-2.79c.49-1.225 1.867-1.01 1.867 0 0 1.838-.695 2.45-1.886 6.25a601.187 601.187 0 0 0-1.44 4.651c-.131.503-.643 1.349-1.19 1.349-.228 0-.395-.076-.489-.22-.19-.253-.17-.948-.152-1.129.037-.575 1.189-4 1.38-4.541-.379.397-.775.796-1.21 1.19-1.02.918-2.663 2.123-4.063 2.123-.644 0-1.056-.164-1.453-.433l1.435 14.337c.378.9 7.415 3.082 16.68 3.082 9.285 0 16.316-2.198 16.675-3.082L40.4 53.211c-1.078.938-2.323 2.092-3.705 2.667-1.022.416-3.29.681-3.29-1.031 0-.938 1.723-2.664 2.723-3.87.265-.306.885-1.062.885-1.459 0-.522-1.132-.4-2.21.446-.606.488-1.176 1.14-1.648 1.752-.812 1.08-1.246 2.014-1.605 2.789-1.172 2.556-.774 1.549-1.721 3.961-.947 2.397-.792 2.124-.983 2.52-.168.345-.416.635-.757.813-.359.18-.85.16-1.153-.055-.169-.11-.25-.344-.25-.666 0-.162.023-.325.06-.488.285-1.1 1.476-3.258 2.839-6.177.303-.665.187-.468.146-.415-1.172 1.082-2.063 1.605-2.722 1.893-1.097.468-2.46.467-2.74-.739-.02-.072-.018-.148-.037-.22-2.231 1.657-4.594 2.107-3.778-1.459-.869 1.479-2.386 2.686-4.242 2.686-.775 0-1.342-.25-1.624-.916-.434-.99.245-2.687.867-4.29a32.62 32.62 0 0 1 1.349-2.918c.303-.612.79-.974 1.434-.811.113.037.212.075.306.128.49.325.301.806.054 1.294-.718 1.35-1.342 2.34-1.757 3.747-.17.594-.382 1.624.28 1.624.453 0 .888-.146 1.306-.434.87-.612 1.569-1.529 2.1-2.429.378-.647.834-1.494 1.062-2.215a6.11 6.11 0 0 1 .342-.867c.21-.45.489-.916.983-.916.247 0 .45.09.604.269.322.397.251.805.08 1.239-.379 1.01-.888 1.912-1.307 3.009-.247.631-.513 1.44-.513 2.106 0 .612.7.466 1.288.213.453-.197.907-.5 1.288-.805.228-.882.168-.687 4.993-12.287.247-.593.7-.848 1.153-.848.228 0 .414.076.605.201.321.235.326.733.195 1.111-.131.344-.117.236-.855 1.892-.984 2.178-1.624 3.75-2.496 5.75-.36.828-1.454 3.403-1.642 4.016-.112.397-.248 1.044.19 1.044 1.021 0 3.65-2.361 4.37-3.064.037-.053.095-.073.17-.11.113-.344.224-.664.318-.99.265-.683.513-1.481 1.007-2.038.15-.18.319-.286.506-.286.529 0 .794.213.794.72 0 .197-.13.92-.208 1.117.266-.27.546-.537.849-.806 2.837-2.503 4.858-1.226 4.858.037 0 1.33-1.681 3.183-2.606 4.211-.303.344-.927.972-.946 1.154 0 .234.168.33.415.33.378 0 1.21-.634 1.514-.85.947-.702 2.227-1.782 3.137-2.538l2.801-24.64ZM6.03 71.973l2.82 4.578 1.099 14.3c0 1.604 5.35 2.9 11.932 2.9 6.581 0 11.932-1.296 11.932-2.9l.873-14.447 2.661-4.43c-7.49 3.009-23.523 3.115-31.317 0Z" fill="#E44849"/></svg>