<svg width="80" height="80" fill="none" xmlns="http://www.w3.org/2000/svg"><path d="M40.593 0c-3.24.01-5.486.296-8.2.765-8.017 1.396-9.477 4.327-9.477 9.729v8.256h18.75v4.167H13.14c-5.491 0-10.297 2.587-11.82 8.79-1.721 7.118-1.798 11.576 0 19.01 1.364 5.544 4.37 9.7 9.864 9.7h7.567V49.783c0-6.179 5.596-12.283 12.008-12.283h15.075c5.256 0 10.417-3.879 10.417-9.119V10.494c0-5.081-3.665-8.881-8.788-9.733.127-.013-3.658-.773-6.87-.76ZM30.209 8.333c1.71 0 3.125 1.41 3.125 3.13a3.125 3.125 0 0 1-3.125 3.12 3.103 3.103 0 0 1-3.125-3.12 3.126 3.126 0 0 1 3.125-3.13Z" fill="#0277BD"/><path d="M38.574 79.167c3.24-.01 5.485-.296 8.2-.765 8.017-1.396 9.477-4.327 9.477-9.729v-8.256H37.5V56.25h28.527c5.492 0 10.298-2.587 11.82-8.79 1.722-7.118 1.799-11.577 0-19.01-1.366-5.544-4.372-9.7-9.866-9.7h-7.566v10.634c0 6.179-5.596 12.283-12.009 12.283H33.332c-5.256 0-10.416 3.879-10.416 9.119v17.887c0 5.081 3.664 8.881 8.787 9.733-.127.013 3.658.773 6.87.76Zm10.385-8.334a3.143 3.143 0 0 1-3.125-3.129 3.125 3.125 0 0 1 3.125-3.12 3.103 3.103 0 0 1 3.125 3.12 3.127 3.127 0 0 1-3.125 3.13Z" fill="#FFC107"/></svg>