<svg width="88" height="92" fill="none" xmlns="http://www.w3.org/2000/svg"><path d="M43.61 0 0 15.177l6.892 56.506 36.764 19.984L80.61 71.412l6.89-56.504L43.61 0Z" fill="#BDBDBD"/><path d="M82.954 17.765 43.75 4.448v82.416l32.983-18.079 6.221-51.02Z" fill="#B71C1C"/><path d="M43.627 4.406 4.544 18.008l6.223 51.04 32.881 17.87.102-.053V4.448l-.123-.042Z" fill="#DD2C00"/><path d="M43.75 8.325v19.808l17.87 38.534h9.186L43.75 8.325Z" fill="#BDBDBD"/><path d="M16.694 66.667h9.185L43.75 28.133V8.325L16.694 66.667Z" fill="#EEE"/><path d="M43.75 45.833h12.5v8.334h-12.5v-8.334Z" fill="#BDBDBD"/><path d="M31.25 45.833h12.5v8.334h-12.5v-8.334Z" fill="#EEE"/></svg>