<svg width="67" height="76" fill="none" xmlns="http://www.w3.org/2000/svg"><path d="M8.333 48.06a4.179 4.179 0 0 1-4.166 4.167A4.179 4.179 0 0 1 0 48.06V29.31a4.179 4.179 0 0 1 4.167-4.167 4.179 4.179 0 0 1 4.166 4.167v18.75Zm58.334 0a4.179 4.179 0 0 1-4.167 4.167 4.179 4.179 0 0 1-4.167-4.167V29.31a4.179 4.179 0 0 1 4.167-4.167 4.179 4.179 0 0 1 4.167 4.167v18.75Zm-37.5 22.917A4.179 4.179 0 0 1 25 75.143a4.179 4.179 0 0 1-4.167-4.166v-18.75A4.179 4.179 0 0 1 25 48.06a4.179 4.179 0 0 1 4.167 4.167v18.75Zm16.666 0a4.179 4.179 0 0 1-4.166 4.166 4.179 4.179 0 0 1-4.167-4.166v-18.75a4.179 4.179 0 0 1 4.167-4.167 4.179 4.179 0 0 1 4.166 4.167v18.75Z" fill="#7CB342"/><path d="M12.5 25.143v31.25a4.179 4.179 0 0 0 4.167 4.167H50a4.179 4.179 0 0 0 4.167-4.166v-31.25H12.5ZM33.333 4.31c-12.5 0-20.208 7.5-20.833 16.667h41.667C53.542 11.81 45.833 4.31 33.333 4.31ZM25 15.977c-1.25 0-2.083-.834-2.083-2.084S23.75 11.81 25 11.81c1.25 0 2.083.833 2.083 2.083 0 1.042-.833 2.084-2.083 2.084Zm16.667 0c-1.25 0-2.084-.834-2.084-2.084s.834-2.083 2.084-2.083 2.083.833 2.083 2.083c0 1.042-.833 2.084-2.083 2.084Z" fill="#7CB342"/><path d="M42.292 9.518c-.417 0-.833-.208-1.25-.416-1.042-.625-1.25-1.875-.625-2.917L43.959.977c.625-1.042 1.875-1.25 2.916-.625 1.042.625 1.25 1.875.625 2.916l-3.54 5.209c-.209.625-.834 1.041-1.667 1.041Zm-18.75-.833c-.625 0-1.458-.417-1.667-1.042l-2.708-4.375c-.625-1.041-.417-2.291.625-2.916s2.292-.417 2.917.625l2.708 4.375c.625 1.041.417 2.291-.625 2.916-.417.209-.833.417-1.25.417Z" fill="#7CB342"/></svg>