<svg width="96" height="86" fill="none" xmlns="http://www.w3.org/2000/svg"><path d="M47.917 63.644C21.042 63.644 0 54.477 0 42.81c0-11.666 21.042-20.833 47.917-20.833s47.916 9.167 47.916 20.833c0 11.667-21.041 20.834-47.916 20.834Zm0-37.5c-26.25 0-43.75 8.541-43.75 16.666s17.5 16.667 43.75 16.667 43.75-8.542 43.75-16.667c0-8.125-17.5-16.666-43.75-16.666Z" fill="#80DEEA"/><path d="M29.375 85.727c-2.084 0-3.75-.417-5.417-1.458-10.208-5.834-7.5-28.542 5.834-51.875 6.25-10.834 13.958-20 21.458-25.834C59.375.31 66.666-1.565 71.666 1.352 76.876 4.27 78.75 11.56 77.5 21.77c-1.25 9.583-5.417 20.833-11.667 31.666-6.25 10.834-13.958 20-21.458 25.834-5.417 4.166-10.625 6.458-15 6.458ZM66.458 4.06c-3.333 0-7.708 1.875-12.5 5.625-7.083 5.625-14.375 14.375-20.416 24.792-13.126 22.708-14.376 42.292-7.5 46.25 3.541 2.083 9.374.208 15.833-4.792C48.958 70.31 56.25 61.56 62.29 51.144c6.042-10.417 10-21.042 11.25-30 1.042-8.334-.208-14.167-3.75-16.25-1.041-.417-2.083-.834-3.333-.834Z" fill="#80DEEA"/><path d="M66.666 85.727c-10.416 0-25.416-12.709-36.666-32.5C16.458 29.894 13.75 7.185 23.958 1.352 34.166-4.481 52.5 9.06 66.041 32.394c6.25 10.833 10.417 22.083 11.667 31.666 1.458 10.209-.625 17.292-5.833 20.417-1.667.833-3.334 1.25-5.209 1.25ZM26.041 4.893c-6.875 3.959-5.625 23.542 7.5 46.25 13.125 22.709 29.375 33.542 36.25 29.584 3.542-2.084 4.792-7.917 3.75-16.25-1.25-8.959-5.208-19.584-11.25-30C49.166 11.769 32.916.935 26.041 4.894Z" fill="#80DEEA"/><path d="M47.916 51.144a8.333 8.333 0 1 0 0-16.667 8.333 8.333 0 0 0 0 16.667Z" fill="#80DEEA"/></svg>