<svg width="80" height="80" fill="none" xmlns="http://www.w3.org/2000/svg"><path d="M10 80C4.477 80 0 75.523 0 70V10C0 4.477 4.477 0 10 0h60c5.523 0 10 4.477 10 10v60c0 5.523-4.477 10-10 10H10Z" fill="#FFD600"/><path d="M49.038 56.14c1.441 2.341 3.008 4.585 6.327 4.585 2.787 0 4.25-1.386 4.25-3.302 0-2.294-1.513-3.108-4.58-4.444l-1.68-.717c-4.853-2.058-8.08-4.637-8.08-10.085 0-5.02 3.844-8.842 9.85-8.842 4.277 0 7.35 1.482 9.567 5.36l-5.238 3.349c-1.152-2.059-2.398-2.87-4.329-2.87-1.97 0-3.219 1.245-3.219 2.87 0 2.008 1.25 2.82 4.136 4.064l1.681.717c5.719 2.435 8.944 4.923 8.944 10.514 0 6.026-4.759 9.328-11.146 9.328-6.248 0-9.796-3.136-11.77-7.017l5.287-3.51Zm-24.138.17c1.054 1.888 2.656 3.34 4.96 3.34 2.205 0 3.474-.87 3.474-4.256v-22.06h6.943V56.46c0 7.015-4.069 10.207-10.01 10.207-5.369 0-9.244-3.638-10.823-7.017l5.456-3.34Z" fill="#000001"/></svg>