<svg width="63" height="84" fill="none" xmlns="http://www.w3.org/2000/svg"><path d="M30.52 43.54c-2.078-3.352-3.587-6.132-5.676-11.365C21.31 23.335 46.334 15.348 36.187 0c4.398 10.602-15.785 17.156-17.66 25.985C16.812 34.106 30.51 43.54 30.52 43.54Z" fill="#F44336"/><path d="M30.996 27.648c-.4 5.242 4.643 8.035 4.79 11.865.116 3.116-3.015 5.714-3.015 5.714s5.683-1.117 7.456-5.87c1.969-5.28-3.82-8.895-3.225-13.122.556-4.037 12.565-11.547 12.565-11.547s-17.67 1.17-18.571 12.96Z" fill="#F44336"/><path d="M48.091 43.867c3.655-.821 6.736 1.506 6.736 4.187 0 6.044-8.377 11.756-8.377 11.756s12.968-1.546 12.968-11.468c0-6.563-6.368-8.203-11.327-4.475Zm-6.156 4.875s4.044-2.882 5.121-3.963c-9.923 2.106-32.58 2.39-32.58.56 0-1.685 7.307-3.412 7.307-3.412S5.59 41.694 5.59 46.471c0 4.979 21.198 5.335 36.346 2.27Z" fill="#1565C0"/><path d="M39.448 53.275c-9.394 3.123-26.696 2.125-21.571-2.069-2.496 0-6.196 2.006-6.196 3.935 0 3.87 18.713 6.857 32.563 1.192l-4.796-3.058Z" fill="#1565C0"/><path d="M20.179 59.875c-3.408 0-5.614 2.196-5.614 3.796 0 4.981 20.333 5.483 28.389.427l-5.12-3.4c-6.02 2.646-21.138 3.01-17.655-.823Z" fill="#1565C0"/><path d="M56.835 67.985c0-1.95-2.197-2.868-2.985-3.308 4.642 11.194-46.494 10.325-46.494 3.717 0-1.502 3.765-2.973 7.244-2.277l-2.958-1.748C4.708 63.28 0 66.329 0 68.787c0 11.465 56.835 10.913 56.835-.802Z" fill="#1565C0"/><path d="M62.5 72.094c-8.637 8.531-30.54 11.64-52.564 6.369 22.024 9.38 52.46 4.097 52.564-6.37Z" fill="#1565C0"/></svg>