<svg width="71" height="84" fill="none" xmlns="http://www.w3.org/2000/svg"><path d="M35.417 0 0 20.833V62.5l35.417 20.833L70.833 62.5V20.833L35.417 0Z" fill="#ECEFF1"/><path d="M34.375 42.708v18.75l-17.709-9.375V32.292l17.709 10.416Zm2.083 0v18.75l17.708-9.375V32.292L36.458 42.708Zm-1.042-2.083L17.708 30.208l17.708-9.375 17.709 9.375-17.709 10.417Z" fill="#0277BD"/><path d="M34.375 6.25v12.5l-18.75 10.417-10.417-6.25L34.375 6.25Zm0 70.834v-12.5l-18.75-10.417-10.417 6.25 29.167 16.666ZM14.583 31.25 4.167 25v33.333l10.416-6.25V31.25Zm21.875-25v12.5l18.75 10.417 10.417-6.25L36.458 6.25Zm0 70.834v-12.5l18.75-10.417 10.417 6.25-29.167 16.666ZM56.25 31.25 66.667 25v33.333l-10.417-6.25V31.25Z" fill="#81D4FA"/></svg>