<svg width="75" height="75" fill="none" xmlns="http://www.w3.org/2000/svg"><path d="M37.5 0 24.98 13.23 12.436 26.436 0 39.584V0h37.5Z" fill="#0D91D6"/><path d="M37.5 0h-.083l-12.48 13.188-12.52 13.229L0 39.52V75l18.104-18.104L30.98 44.02l12.896-12.896 12.896-12.896L75 0H37.5Z" fill="#F88909"/><path d="M18.104 56.896 0 75V39.77l18.104 17.126Z" fill="#C757BC"/><path d="M30.98 44.02 18.103 56.897 0 39.77v-.188l12.438-13.145L30.979 44.02Z" fill="#D3638F"/><path d="M43.875 31.125 30.979 44.021 12.438 26.438l12.541-13.209 18.896 17.896Z" fill="#E07063"/><path d="M56.77 18.23 43.876 31.124 24.979 13.229 37.499 0l19.272 18.23Z" fill="#EC7D36"/><path d="M75 0 56.77 18.23 37.5 0H75Z" fill="#F88909"/><path d="m11.48 27.396-7.334 7.77L0 31.25V16.542l11.48 10.854Z" fill="#0095D5"/><path d="m18.813 19.625-7.334 7.77L0 16.543V1.812l18.813 17.813Z" fill="#2B88DA"/><path d="m26.167 11.875-7.355 7.75L0 1.812V0h13.604l12.563 11.875Z" fill="#557BDE"/><path d="m33.5 4.104-7.334 7.771L13.604 0H37.5l-4 4.104Z" fill="#806EE3"/><path d="M35.417 39.583 0 75h70.833L35.417 39.583Z" fill="#0095D5"/><path d="M41 75H24L12 63.02l8.5-8.5L41 75Z" fill="#2B88DA"/><path d="M58.042 75H41L20.5 54.52l8.5-8.5L58.042 75Z" fill="#557BDE"/><path d="M75 75H58.042L29 46.02l8.5-8.52L75 75Z" fill="#806EE3"/></svg>