<svg width="75" height="75" fill="none" xmlns="http://www.w3.org/2000/svg"><path d="M70.833 0H4.167A4.166 4.166 0 0 0 0 4.167v66.666A4.166 4.166 0 0 0 4.167 75h66.666A4.166 4.166 0 0 0 75 70.833V4.167A4.166 4.166 0 0 0 70.833 0Z" fill="url(#a)"/><path opacity=".05" d="M68.373 51.263c-1.696-2.22-3.956-3.507-6.148-4.565-.664-.32-1.331-.636-1.998-.95-1.385-.652-2.819-1.327-4.17-2.048-1.011-.54-.796-1.06-.682-1.342.108-.264.55-.45 1.075-.45.156 0 .317.017.475.046.592.11 1.7 1.056 2.28 1.944l.566.867.565.866.87-.56.871-.56c.171-.111 4.219-2.713 5.748-3.821l.633-.459.634-.458-.263-.736-.262-.735c-.102-.287-2.633-7.042-12.96-7.042h-.013c-3.356.088-6.192 1.257-8.47 3.477-.48.47-.905.992-1.286 1.553v-5.04H14.584v10.487h10.358v29.038h10.394l.004-1.038.004-1.037.102-26.963h8.458c-.048.496-.079.998-.068 1.507.064 3.277 1.383 6.31 3.618 8.32 1.513 1.361 3.26 2.321 4.952 3.25l.446.246c1.127.623 2.284 1.17 3.4 1.698.888.421 1.752.83 2.598 1.273.315.165.44.382.427.746-.014.492-.206.76-.679.96-.725.307-1.431.46-2.102.46-1.008 0-1.988-.355-2.915-1.06-.495-.377-.98-.947-1.498-1.554a37.037 37.037 0 0 0-.908-1.035l-.569-.613-.568-.612-.721.42-.721.422c-1.81 1.056-5.925 3.533-5.925 3.533l-.88.53-.878.528.516.888.517.887c1.485 2.548 3.565 4.765 5.565 5.934a17.618 17.618 0 0 0 9.004 2.441c1.743 0 3.573-.246 5.437-.729 4.025-1.044 6.942-3.648 8.213-7.333 1.337-3.863.633-8.41-1.792-11.581Z" fill="#000"/><path opacity=".05" d="M55.604 32.302h-.027c-3.044.08-5.643 1.15-7.729 3.181-1.946 1.898-3.03 4.717-2.969 7.74.06 2.992 1.252 5.75 3.273 7.569 1.423 1.279 3.119 2.212 4.759 3.112l.445.246c1.1.606 2.24 1.148 3.344 1.67.886.42 1.771.838 2.636 1.292.668.35 1.01.94.985 1.703-.03.895-.47 1.53-1.315 1.887-.854.36-1.695.542-2.506.542-1.24 0-2.433-.43-3.546-1.273-.585-.444-1.108-1.059-1.66-1.709-.283-.33-.57-.67-.88-1.002l-.568-.612-.72.42a753.673 753.673 0 0 0-5.913 3.528l-.88.529.517.887c1.398 2.4 3.338 4.478 5.19 5.559a16.61 16.61 0 0 0 8.479 2.3c1.656 0 3.396-.234 5.175-.696 3.675-.954 6.335-3.32 7.49-6.665 1.222-3.545.58-7.71-1.638-10.612-1.563-2.046-3.698-3.256-5.773-4.26-.66-.32-1.325-.634-1.99-.946-1.397-.659-2.843-1.34-4.218-2.073-1.188-.634-1.598-1.575-1.157-2.654.278-.678 1.059-1.098 2.04-1.098.219 0 .444.02.669.064.981.184 2.3 1.39 2.958 2.4l.565.867.87-.56c.171-.111 4.207-2.707 5.703-3.788l.633-.458-.263-.736c-.091-.262-2.377-6.354-11.979-6.354Zm-10.812-.01H15.625v8.404h10.358v29.037h8.315l.004-1.037.106-28h10.384v-8.404Z" fill="#000"/><path d="M49.65 57.967c.937 1.01 1.685 2.079 2.675 2.83 2.148 1.634 4.577 1.92 7.085.861 1.206-.508 1.91-1.491 1.952-2.812.038-1.167-.525-2.123-1.544-2.658-1.962-1.03-4.02-1.882-5.96-2.953-1.737-.958-3.552-1.908-5.01-3.22-3.865-3.48-3.857-10.296-.275-13.786 1.948-1.898 4.3-2.814 7.029-2.885 8.979 0 10.998 5.658 10.998 5.658-1.49 1.077-5.654 3.756-5.654 3.756-.746-1.143-2.271-2.596-3.64-2.854-1.72-.323-3.319.331-3.865 1.663-.629 1.535-.083 3.054 1.63 3.968 2.04 1.088 4.16 2.028 6.243 3.036 2.042.987 3.996 2.12 5.4 3.956 3.55 4.644 2.844 13.53-5.285 15.638-4.444 1.152-8.788.89-12.869-1.496-1.923-1.123-3.714-3.294-4.814-5.184.004 0 4.102-2.466 5.904-3.518ZM16.666 33.333v6.321h10.359v29.038h6.235l.11-29.038h10.38v-6.32H16.666Z" fill="#fff"/><defs><linearGradient id="a" x1="0" y1="37.5" x2="75" y2="37.5" gradientUnits="userSpaceOnUse"><stop stop-color="#0D61A9"/><stop offset="1" stop-color="#16528C"/></linearGradient></defs></svg>