<svg width="80" height="90" fill="none" xmlns="http://www.w3.org/2000/svg"><path d="M39.598 89.247a6.87 6.87 0 0 1-3.43-.917l-10.916-6.464c-1.631-.913-.835-1.236-.298-1.421 2.175-.76 2.615-.934 4.936-2.252.243-.14.562-.09.812.058l8.388 4.977c.302.165.733.165 1.012 0l32.702-18.877c.302-.173.5-.523.5-.883V25.732c0-.377-.196-.712-.506-.9L40.11 5.97a1.009 1.009 0 0 0-1.006 0L6.421 24.83a1.04 1.04 0 0 0-.519.892v37.737c0 .36.196.704.508.875l8.957 5.173c4.862 2.431 7.833-.433 7.833-3.314V28.949c0-.531.417-.942.95-.942h4.142c.516 0 .941.409.941.942V66.21c0 6.484-3.535 10.209-9.683 10.209-1.892 0-3.381 0-7.54-2.046L3.431 69.43A6.92 6.92 0 0 1 0 63.461V25.724c0-2.456 1.31-4.748 3.43-5.96L36.166.878c2.07-1.17 4.82-1.17 6.877 0L75.74 19.772a6.904 6.904 0 0 1 3.427 5.96V63.47a6.925 6.925 0 0 1-3.43 5.96L43.042 88.313a6.87 6.87 0 0 1-3.446.917" fill="#21A366"/><path d="M49.7 63.243c-14.308 0-17.308-6.569-17.308-12.077 0-.523.422-.942.947-.942h4.226c.466 0 .86.34.933.8.637 4.304 2.537 6.475 11.19 6.475 6.891 0 9.822-1.556 9.822-5.213 0-2.104-.835-3.666-11.541-4.714-8.957-.883-14.49-2.856-14.49-10.019 0-6.598 5.567-10.527 14.89-10.527 10.47 0 15.66 3.636 16.314 11.444a.95.95 0 0 1-.254.729.973.973 0 0 1-.696.302h-4.248a.937.937 0 0 1-.916-.737c-1.023-4.528-3.496-5.975-10.217-5.975-7.523 0-8.398 2.618-8.398 4.583 0 2.381 1.031 3.077 11.181 4.42C61.187 43.127 65.96 45.01 65.96 52.075c0 7.12-5.943 11.206-16.306 11.206" fill="#21A366"/></svg>