<svg width="71" height="80" fill="none" xmlns="http://www.w3.org/2000/svg"><path d="M70.833 0H0l6.25 70.833 29.167 8.334 29.166-8.334L70.833 0Z" fill="#E65100"/><path d="M35.416 6.25v66.458l23.334-6.666L63.958 6.25H35.417Z" fill="#FF6D00"/><path d="M35.416 41.666v-8.333h17.917l-1.458 23.959-16.459 5.416v-8.75l8.542-2.916.625-9.376h-9.166ZM53.959 25l.625-8.334H35.417V25h18.541Z" fill="#fff"/><path d="M35.416 53.958v8.75l-16.458-5.416-.833-11.459h8.333l.417 5.209 8.541 2.916ZM25.208 25h10.208v-8.334H16.458l1.458 25h17.5v-8.333h-9.583L25.208 25Z" fill="#EEE"/></svg>